<?xml version="1.0" standalone="no"?>
<!DOCTYPE svg PUBLIC "-//W3C//DTD SVG 20010904//EN"
 "http://www.w3.org/TR/2001/REC-SVG-20010904/DTD/svg10.dtd">
<svg version="1.0" xmlns="http://www.w3.org/2000/svg"
 width="700.000000pt" height="700.000000pt" viewBox="0 0 700.000000 700.000000"
 preserveAspectRatio="xMidYMid meet">
<metadata>
Created by potrace 1.14, written by Peter Selinger 2001-2017
</metadata>
<g transform="translate(0.000000,700.000000) scale(0.100000,-0.100000)"
fill="#000000" stroke="none">
<path d="M1705 5677 c-3 -7 -4 -127 -3 -267 l3 -255 133 -5 c131 -5 134 -5
158 -33 39 -45 29 -126 -19 -157 -15 -10 -62 -16 -149 -18 l-128 -4 0 -204 0
-204 114 0 c130 0 171 -11 191 -51 30 -57 12 -120 -42 -148 -12 -6 -73 -11
-142 -11 l-121 0 0 -205 0 -205 121 0 c69 0 130 -5 142 -11 63 -32 76 -107 28
-161 l-29 -33 -131 -3 -131 -4 2 -201 3 -202 133 -5 c131 -5 134 -5 158 -33
29 -33 32 -91 8 -126 -28 -39 -73 -51 -194 -51 l-110 0 2 -202 3 -203 133 -5
c131 -5 134 -5 158 -33 16 -19 24 -40 24 -67 0 -27 -8 -48 -24 -67 -24 -28
-27 -28 -158 -33 l-133 -5 -3 -201 -2 -202 131 -3 131 -4 29 -33 c38 -42 40
-98 5 -139 -24 -28 -27 -28 -158 -33 l-133 -5 0 -265 0 -265 1743 -3 1742 -2
0 1067 0 1068 117 117 118 118 -193 193 -192 192 75 75 75 74 0 738 0 738
-1740 0 c-1396 0 -1742 -3 -1745 -13z m2826 -570 c19 -12 44 -42 57 -67 l23
-45 -3 -550 c-3 -531 -4 -551 -23 -585 -12 -21 -39 -44 -65 -58 l-45 -22 -757
2 c-750 3 -757 3 -785 24 -15 11 -38 36 -50 54 l-23 33 0 560 c0 550 0 560 21
597 12 20 38 47 58 58 36 21 41 22 797 22 l761 0 34 -23z m-957 -2906 l188
-189 -48 -15 c-189 -61 -343 -107 -355 -107 -8 0 -38 24 -67 53 l-52 53 66
197 c36 108 69 197 72 197 4 0 92 -85 196 -189z"/>
<path d="M5453 4420 c-51 -12 -114 -54 -178 -119 l-60 -61 193 -193 193 -192
79 81 c63 66 82 92 94 135 21 70 20 117 -4 183 -47 124 -186 198 -317 166z"/>
</g>
</svg>
